<svg viewBox="0 0 100 100" xmlns="http://www.w3.org/2000/svg">
  <!-- 短菌毛 -->
  <!-- 上部菌毛 -->
  <line x1="35" y1="32" x2="33" y2="28" stroke="#2E8B57" stroke-width="1"/>
  <line x1="42" y1="31" x2="41" y2="27" stroke="#2E8B57" stroke-width="1"/>
  <line x1="50" y1="31" x2="50" y2="27" stroke="#2E8B57" stroke-width="1"/>
  <line x1="58" y1="31" x2="59" y2="27" stroke="#2E8B57" stroke-width="1"/>
  <line x1="65" y1="32" x2="67" y2="28" stroke="#2E8B57" stroke-width="1"/>
  
  <!-- 下部菌毛 -->
  <line x1="35" y1="58" x2="33" y2="62" stroke="#2E8B57" stroke-width="1"/>
  <line x1="42" y1="59" x2="41" y2="63" stroke="#2E8B57" stroke-width="1"/>
  <line x1="50" y1="59" x2="50" y2="63" stroke="#2E8B57" stroke-width="1"/>
  <line x1="58" y1="59" x2="59" y2="63" stroke="#2E8B57" stroke-width="1"/>
  <line x1="65" y1="58" x2="67" y2="62" stroke="#2E8B57" stroke-width="1"/>
  
  <!-- 左侧菌毛 -->
  <line x1="27" y1="42" x2="23" y2="41" stroke="#2E8B57" stroke-width="1"/>
  <line x1="27" y1="45" x2="23" y2="45" stroke="#2E8B57" stroke-width="1"/>
  <line x1="27" y1="48" x2="23" y2="49" stroke="#2E8B57" stroke-width="1"/>
  
  <!-- 右侧菌毛 -->
  <line x1="73" y1="42" x2="77" y2="41" stroke="#2E8B57" stroke-width="1"/>
  <line x1="73" y1="45" x2="77" y2="45" stroke="#2E8B57" stroke-width="1"/>
  <line x1="73" y1="48" x2="77" y2="49" stroke="#2E8B57" stroke-width="1"/>

  <!-- 主体杆状结构 -->
  <path d="
    M 30 45
    Q 30 35, 50 35
    Q 70 35, 70 45
    Q 70 55, 50 55
    Q 30 55, 30 45
    Z" 
    fill="#2E8B57"/>
  
  <!-- 细微的光泽效果 -->
  <path d="
    M 35 40
    Q 35 38, 50 38
    Q 65 38, 65 40
    Q 65 42, 50 42
    Q 35 42, 35 40
    Z" 
    fill="#3CB371"
    opacity="0.5"/>
</svg>
